<svg xmlns="http://www.w3.org/2000/svg"  viewBox="0 0 50 50" width="50px" height="50px"><path d="M 24 2.3710938 L 17.552734 5.4707031 C 17.205734 5.6377031 16.984375 5.9870937 16.984375 6.3710938 L 16.984375 14.355469 L 23.943359 12.285156 L 24 12.261719 L 24 2.3710938 z M 26 2.3710938 L 26 12.269531 L 33.015625 14.355469 L 33.015625 6.3710938 C 33.015625 5.9870937 32.794266 5.6367031 32.447266 5.4707031 L 26 2.3710938 z M 11 10.476562 L 11 39.523438 L 14.984375 38.550781 C 14.984375 37.887781 14.985375 37.223547 14.984375 36.560547 C 14.983375 35.923547 14.927375 35.265859 14.984375 34.630859 C 14.986375 34.609859 14.987234 34.586453 14.990234 34.564453 C 15.107234 33.554453 15.794078 32.6275 16.705078 32.1875 C 16.991078 32.0495 17.293609 31.97925 17.599609 31.90625 L 17.605469 31.679688 L 17.523438 31.666016 C 16.051437 31.436016 14.984375 30.188172 14.984375 28.701172 L 14.984375 20.908203 C 14.984375 19.514203 15.926906 18.343719 17.253906 18.011719 C 17.057906 18.060719 16.649234 17.794219 16.490234 17.699219 C 16.226234 17.542219 15.98725 17.344187 15.78125 17.117188 C 15.27825 16.560188 15.001375 15.846562 14.984375 15.101562 L 14.984375 11.449219 L 11 10.476562 z M 39 10.476562 L 35.015625 11.449219 L 35.015625 12.707031 L 35.015625 14.806641 C 35.015625 16.250641 34.233094 17.634766 32.746094 18.009766 C 34.073094 18.341766 35.015625 19.51225 35.015625 20.90625 L 35.015625 28.701172 C 35.015625 30.189172 33.948516 31.434062 32.478516 31.664062 L 32.447266 31.669922 L 32.449219 31.917969 L 32.712891 31.980469 C 34.023891 32.293469 34.983625 33.567438 35.015625 34.898438 L 35.015625 38.548828 L 39 39.523438 L 39 10.476562 z M 9 10.619141 L 5.5820312 12.183594 C 5.2270312 12.346594 5 12.70275 5 13.09375 L 5 36.90625 C 5 37.29725 5.2270312 37.654406 5.5820312 37.816406 L 9 39.380859 L 9 10.619141 z M 41 10.619141 L 41 39.380859 L 44.417969 37.816406 C 44.772969 37.653406 45 37.29725 45 36.90625 L 45 13.09375 C 45 12.70275 44.772969 12.347547 44.417969 12.185547 L 41 10.619141 z M 24.859375 14.101562 L 18.011719 16.136719 L 24.767578 17.75 C 24.844578 17.768 24.920047 17.777344 24.998047 17.777344 C 25.076047 17.777344 25.154469 17.768 25.230469 17.75 L 31.986328 16.136719 L 25.140625 14.101562 L 24.859375 14.101562 z M 24 18.960938 L 17.830078 19.919922 C 17.343078 19.995922 16.984375 20.415203 16.984375 20.908203 L 16.984375 28.701172 C 16.984375 29.194172 17.343078 29.613453 17.830078 29.689453 L 24 30.650391 L 24 18.960938 z M 26 18.960938 L 26 30.650391 L 32.169922 29.689453 C 32.656922 29.613453 33.015625 29.194172 33.015625 28.701172 L 33.015625 20.908203 C 33.015625 20.415203 32.656922 19.995922 32.169922 19.919922 L 26 18.960938 z M 25 32.222656 C 24.922 32.222656 24.844078 32.232 24.767578 32.25 L 18.013672 33.863281 L 25 35.939453 L 31.986328 33.863281 L 25.232422 32.25 C 25.155922 32.232 25.078 32.222656 25 32.222656 z M 16.984375 35.644531 L 16.984375 43.628906 C 16.984375 44.012906 17.205734 44.363297 17.552734 44.529297 L 24 47.628906 L 24 37.730469 L 16.984375 35.644531 z M 33.015625 35.644531 L 26 37.730469 L 26 47.628906 L 32.447266 44.529297 C 32.794266 44.362297 33.015625 44.012906 33.015625 43.628906 L 33.015625 35.644531 z"/></svg>