<svg xmlns="http://www.w3.org/2000/svg"  viewBox="0 0 30 30" width="30px" height="30px"><path d="M 16 2 C 15.7 2 15.299609 2.2 15.099609 2.5 L 11.699219 8 L 3 8 C 2.4 8 2 8.4 2 9 L 2 15 C 2 15.2 1.9992187 15.399609 2.1992188 15.599609 L 5.1992188 19.599609 C 5.3992188 19.899609 5.7 20 6 20 C 6.3 20 6.6007813 19.799609 6.8007812 19.599609 L 8.0996094 17.599609 L 9.5 19 L 8.1992188 20.300781 C 7.7992187 20.700781 7.7992187 21.299219 8.1992188 21.699219 C 8.5992188 22.099219 8.7003906 22 8.9003906 22 C 9.1003906 22 9.3996094 21.999219 9.5996094 21.699219 L 10.900391 20.400391 L 12.400391 21.900391 L 10.400391 23.099609 C 10.100391 23.299609 9.9003906 23.600391 9.9003906 23.900391 C 9.9003906 24.200391 10.000781 24.600781 10.300781 24.800781 L 14.300781 27.800781 C 14.500781 27.900781 14.700391 28 14.900391 28 L 20.900391 28 C 21.500391 28 21.900391 27.6 21.900391 27 L 21.900391 18.300781 L 27.400391 14.900391 C 27.700391 14.700391 27.900391 14.4 27.900391 14 L 27.900391 3 C 27.900391 2.4 27.500391 2 26.900391 2 L 16 2 z M 16.599609 4 L 26 4 L 26 13.400391 L 14.099609 20.699219 L 12.400391 19 L 15.699219 15.699219 C 16.099219 15.299219 16.099219 14.700781 15.699219 14.300781 C 15.299219 13.900781 14.700781 13.900781 14.300781 14.300781 L 11 17.599609 L 9.3007812 15.900391 L 16.599609 4 z M 21 6 A 3 3 0 0 0 21 12 A 3 3 0 0 0 21 6 z M 3 21 C 2.4 21 2 21.4 2 22 L 2 27 C 2 27.6 2.4 28 3 28 L 8 28 C 8.6 28 9 27.6 9 27 C 9 26.4 8.6 26 8 26 L 4 26 L 4 22 C 4 21.4 3.6 21 3 21 z"/></svg>